<?xml version="1.0" encoding="utf-8"?>
<!-- Generator: Adobe Illustrator 27.2.0, SVG Export Plug-In . SVG Version: 6.00 Build 0)  -->
<svg version="1.1" id="Layer_1" xmlns="http://www.w3.org/2000/svg" xmlns:xlink="http://www.w3.org/1999/xlink" x="0px" y="0px"
	 viewBox="0 0 488.5 297.91" style="enable-background:new 0 0 488.5 297.91;" xml:space="preserve">
<style type="text/css">
	.st0{fill:#FFFFFF;}
</style>
<path class="st0" d="M375.24,205.73v-3.42h-23.96v29.17h24.82v-3.42h-21.4v-10h10.81v-3.42H354.7v-8.91H375.24z M392.01,268.21
	c-1.08-1.05-2.34-1.89-3.79-2.51c-1.44-0.61-2.96-0.93-4.56-0.93h-20.78v-8.49c0-0.93,0.32-1.71,0.96-2.36
	c0.64-0.64,1.43-0.96,2.36-0.96h13.76c0.93,0,1.71,0.32,2.36,0.96c0.65,0.65,0.97,1.43,0.97,2.36v2.71h11.82v-4.1
	c0-1.6-0.32-3.12-0.96-4.56c-0.65-1.44-1.52-2.7-2.63-3.75c-1.11-1.06-2.37-1.89-3.78-2.51c-1.42-0.61-2.9-0.93-4.44-0.93h-20.25
	c-1.65,0-3.19,0.32-4.6,0.97c-1.42,0.65-2.66,1.51-3.71,2.59c-1.06,1.08-1.89,2.35-2.51,3.78c-0.62,1.44-0.93,2.94-0.93,4.48v30.52
	c0,1.65,0.31,3.19,0.93,4.6c0.61,1.41,1.45,2.65,2.51,3.71c1.06,1.06,2.3,1.9,3.71,2.51c1.41,0.61,2.95,0.93,4.6,0.93h20.63
	c1.6,0,3.12-0.32,4.56-0.97c1.44-0.64,2.71-1.5,3.79-2.59c1.08-1.08,1.93-2.33,2.55-3.74c0.61-1.42,0.93-2.9,0.93-4.45v-8.96
	c0-1.6-0.31-3.12-0.93-4.56C393.94,270.52,393.08,269.27,392.01,268.21z M383.81,284.09c0,0.93-0.32,1.71-0.96,2.36
	c-0.65,0.65-1.43,0.97-2.36,0.97h-14.29c-0.93,0-1.71-0.32-2.36-0.97c-0.65-0.65-0.96-1.43-0.96-2.36v-9.5h17.62
	c0.93,0,1.71,0.32,2.36,0.96c0.64,0.65,0.96,1.43,0.96,2.36V284.09z M161.45,99.13c-33.19,35.45-36.12,65.14-16.02,78.09
	c18.49,11.91,42.08-1.73,58.72-31.85c4.16-7.52,7.32-14.96,9.53-22.01c0.13-0.4,0.5-0.65,0.92-0.61c2.79,0.24,5.86,0.2,9.26-0.16
	c3.15-0.34,6.99-0.85,11.37-1.63c0.64-0.11,1.18,0.47,1.03,1.11c-4.69,18.37-2.13,30.43,7.86,35.55
	c19.84,10.16,51.48-1.88,95.13-25.6c0.32-0.18,0.72-0.14,1,0.1c1.21,1.03,4.5,3.77,6.61,4.93c19.24,10.65,42.11-1.18,58.75-31.3
	c4.32-7.81,7.56-15.53,9.78-22.83c0.13-0.41,0.51-0.66,0.94-0.62c2.77,0.28,5.83,0.31,9.22,0.02c8.1-0.7,12.82-2.17,16.45-4.98
	c0.13-0.1,0.22-0.23,0.28-0.38l6.42-15.93c0.29-0.73-0.42-1.46-1.15-1.17c-4.97,1.98-13.39,4.32-19.31,4.24
	c-3.35-0.04-6.19-0.51-8.6-1.24c-0.38-0.11-0.62-0.48-0.62-0.87c0.21-10.71-2.73-18.96-8.66-22.83c-7.75-5.05-21.02-7.9-47.46,20.34
	c-23.16,24.74-31.58,46.4-27.73,61.64c0.09,0.37-0.05,0.76-0.37,0.96c-6.02,3.84-18.33,9.88-35.52,16.79
	c-17.52,7.04-46.47,12.54-38.25-24.13c0.07-0.3,0.29-0.55,0.58-0.65c19.82-6.82,43.53-20,65.65-41.23
	c35.03-33.62,26.19-65.93,13.69-71.43c-12.5-5.5-40.1,2.47-77.72,62.62c-8.31,13.29-15.06,26.09-19.98,37.76
	c-0.12,0.3-0.4,0.48-0.71,0.54c-5.25,1.03-8.25,1.93-14.69,1.96c-3.74,0.02-6.72-0.22-9.87-1.49c-0.37-0.15-0.42-0.67-0.41-1.07
	c0.24-10.79-2.69-19.11-8.65-23C201.15,73.73,187.89,70.88,161.45,99.13z M365.11,82.37c8.07-16.76,18.74-24.46,23.9-27.4
	c0.55-0.31,1.24,0.03,1.32,0.65c0.93,6.89,3.64,15.53,10.95,21.13c0.25,0.2,0.39,0.51,0.35,0.82L401,82.2
	c-0.01,0.04-0.01,0.09-0.03,0.13c-11.51,40.21-32.97,38.53-38.09,34.54C357.76,112.88,354.05,105.32,365.11,82.37z M267.58,94.65
	c17.04-42.44,50.85-82.66,61.26-76.29c6.69,4.09,11.66,21.72-23.29,53.76c-12.96,11.88-25.27,19.16-36.8,23.7
	C268.02,96.1,267.29,95.39,267.58,94.65z M187.24,94.77c0.55-0.32,1.26,0.02,1.34,0.65c0.86,7.12,3.52,16.27,11.1,22
	c0.26,0.2,0.39,0.51,0.35,0.83l-0.48,3.57c0,0.04-0.01,0.09-0.03,0.13c-11.51,40.21-32.98,38.53-38.09,34.54
	c-5.12-4-8.83-11.56,2.22-34.51C171.56,105.55,181.97,97.83,187.24,94.77z M160.92,77.29c17.9-32.43,2.92-76.86-61.72-52.86
	c-46.03,17.1-73.95,38.11-81.07,43.84c-1.17,0.94-2.04,2.21-2.51,3.64l-9.46,29.57c-0.26,0.81,0.69,1.47,1.35,0.94
	c14.19-11.25,32.77-24.84,46.96-32.34c0.7-0.37,1.51,0.29,1.27,1.05c-4.63,15.05-11.62,37.42-18.32,57.76
	c-10.31,31.27-32.96,88.31-37.36,99.35c-0.29,0.72,0.42,1.44,1.14,1.17l30.73-11.53c0.25-0.1,0.44-0.29,0.53-0.54
	c1.49-4.35,15-44,25.63-75.88c1.13-3.39,2.36-7.04,3.66-10.84c0.13-0.37,0.47-0.62,0.86-0.61c3.91,0.09,8.82-0.15,14.94-0.82
	C119.87,124.56,148.24,100.26,160.92,77.29z M69.97,110.28c-0.59-0.05-0.97-0.63-0.78-1.19c8.84-25.37,17.08-48.99,19.56-55.91
	c0.07-0.2,0.84-1.88,1.02-1.98c13.07-7.54,23.9-10.61,35.75-11.32c30-1.78,21.7,48.97-17.16,63.37
	C90.25,109.96,77.74,110.9,69.97,110.28z M395.25,228.68c-7.54,0-10.46-3.66-12.25-5.26l-2.45,2.41c1.71,1.83,5.72,6.26,14.59,6.26
	c7.15,0,13.92-2.96,13.92-9.3c0-6.46-5.52-8.44-10.97-8.44h-3.54c-3.5,0-8.44,0-8.44-3.89c0-2.29,2.53-5.37,9.1-5.37
	c5.25,0,8.05,2.14,10.15,3.54l2.14-2.68c-1.48-1.09-5.52-4.28-12.21-4.28c-8.94,0-12.6,4.75-12.6,8.79c0,5.45,4.55,7.31,10.19,7.31
	h6.14c2.92,0,6.61,1.37,6.61,5.02C405.64,226.19,401.82,228.68,395.25,228.68z M399.34,252.96h31.45l-22.72,44.27h12.6l22.72-44.27
	v-9.82h-44.05V252.96z M206.17,205.17c-0.82,0.28-1.65,0.56-2.46,0.85c-0.68,0.24-0.86,0.73-0.65,1.39
	c0.17,0.52,0.28,1.08,0.52,1.56c0.12,0.24,0.54,0.55,0.73,0.49c1.17-0.33,2.32-0.7,3.43-1.17c0.34-0.14,0.62-0.58,0.77-0.94
	C209.01,206.11,207.78,204.88,206.17,205.17z M261.23,191.09c-0.08,0.01-0.16,0.3-0.17,0.46c-0.02,0.88-0.01,1.75-0.03,2.63
	c-0.01,0.99,0,1,0.98,0.9c0.42-0.14,0.87-0.24,1.27-0.45c0.17-0.09,0.38-0.48,0.31-0.59c-0.56-0.96-1.17-1.89-1.8-2.81
	C261.7,191.11,261.41,191.06,261.23,191.09z M463.08,112.77c-20.47-7.42-42.19-6.99-45.82-6.87c-0.32,0.01-0.62,0.2-0.76,0.49
	l-5.04,10.02c-0.3,0.6,0.14,1.31,0.81,1.29c7.52-0.14,49.54-0.03,47.71,20.42c-1.94,21.6-46.14,8.82-174.91,37.85
	c-128.03,28.87-191.9,65.9-192.61,69.2c-0.6,2.77-12.62,36.49-15.48,47.5c-0.75,2.88-1.01,3.22,1.42,0.96
	c5.09-4.71,18.45-14.17,35.72-15.35c19.79-1.36,35.11,14.58,38.64,18.6c0.39,0.44,0.63,1.37,0.95,0.87
	c3.12-4.8,18.14-26.95,46.72-50.96c32.54-27.34,108.84-51.77,180.74-63.23c71.15-11.34,98.08-17.04,106.11-37.95
	C491.38,134.98,485.51,120.89,463.08,112.77z M162.32,233.24c-0.74-1.17-1.37-2.3-2.15-3.32c-0.33-0.43-0.99-0.9-1.46-0.86
	c-0.95,0.07-1.9,0.42-2.81,0.75c-0.47,0.17-0.52,0.58-0.31,1.06c0.49,1.15,0.91,2.32,1.38,3.48c0.28,0.68,0.13,1.11-0.58,1.37
	c-0.65,0.23-1.25,0.58-1.91,0.77c-0.19,0.06-0.62-0.15-0.71-0.35c-0.4-0.86-0.71-1.77-1.06-2.65c-0.67-1.7-1.35-3.41-2-5.11
	c-0.68-1.76-1.32-3.53-2-5.29c-0.18-0.46-0.03-0.72,0.38-0.88c2.44-0.97,4.86-1.99,7.32-2.88c2.35-0.85,4.17-0.29,5.43,1.8
	c0.77,1.28,0.86,2.78,0.04,4.18c-0.2,0.34-0.42,0.66-0.66,1.06c2.76,0.73,2.97,3.41,4.35,5.33
	C164.45,232.23,163.44,232.71,162.32,233.24z M182.76,226.13c-0.64,0.25-1.28,0.53-1.92,0.78c-0.41,0.16-0.78,0.14-0.98-0.35
	c-0.06-0.14-0.19-0.25-0.28-0.38c-1.73-2.46-1.28-1.95-3.81-1.08c-2.35,0.8-1.98,0.72-1.8,2.88c0.13,1.52,0.13,1.51-1.27,2.1
	c-0.57,0.24-1.14,0.51-1.78,0.8c-0.09-0.7-0.2-1.27-0.22-1.83c-0.07-2.44-0.09-4.87-0.15-7.31c-0.05-1.94-0.13-3.87-0.2-5.81
	c-0.03-0.79,0.17-1.35,1.1-1.55c0.82-0.17,1.59-0.58,2.39-0.87c0.51-0.19,0.86-0.05,1.21,0.42c1.23,1.68,2.52,3.32,3.76,4.98
	c0.85,1.14,1.66,2.33,2.51,3.47c0.6,0.8,1.28,1.54,1.87,2.35C183.75,225.51,183.64,225.79,182.76,226.13z M197.54,220.58
	c-2.47,0.89-4.96,1.72-7.44,2.57c-0.32,0.11-0.64,0.24-0.94,0.41c-0.83,0.48-1.13,0.39-1.4-0.5c-0.46-1.49-0.89-3-1.35-4.49
	c-0.77-2.45-1.55-4.88-2.33-7.33c-0.08-0.25-0.16-0.51-0.22-0.77c-0.21-0.8-0.06-1.04,0.75-1.25c0.54-0.14,1.07-0.3,1.61-0.44
	c0.47-0.12,0.81-0.05,0.98,0.51c0.93,3.1,1.89,6.18,2.83,9.28c0.3,1,0.73,1.24,1.82,0.84c1.76-0.63,3.5-1.31,5.47-2.05
	c0.25,0.82,0.55,1.64,0.73,2.48C198.08,220.05,197.77,220.5,197.54,220.58z M209.59,210.56c-1.34,0.63-2.73,1.17-4.12,1.67
	c-0.69,0.25-0.86,0.65-0.68,1.28c0.31,1.1,0.67,2.18,0.96,3.28c0.27,1.05,0.2,1.13-0.85,1.46c-0.58,0.18-1.14,0.4-1.72,0.59
	c-0.48,0.15-0.72-0.04-0.85-0.53c-0.94-3.56-1.9-7.12-2.87-10.68c-0.21-0.79-0.51-1.56-0.74-2.35c-0.15-0.53,0.07-0.89,0.59-1.04
	c2.34-0.68,4.69-1.34,7.04-2.01c0.22-0.06,0.47-0.06,0.71-0.09c1.97-0.21,3.45,0.62,4.49,2.23
	C212.83,206.36,211.83,209.52,209.59,210.56z M230.02,210.83c-0.15,0.05-0.31,0.08-0.46,0.13c-1.46,0.54-1.53,0.88-2.13-1.03
	c-0.38-1.21-0.78-2.42-1.21-3.76c-1.45,0.37-2.84,0.7-4.22,1.08c-0.56,0.16-0.79,0.56-0.58,1.18c0.38,1.15,0.72,2.32,1.09,3.48
	c0.27,0.87,0.01,1.29-0.9,1.46c-0.49,0.09-0.98,0.23-1.47,0.35c-0.92,0.23-1.12,0.09-1.32-0.82c-0.47-2.12-0.93-4.25-1.46-6.36
	c-0.53-2.1-1.14-4.19-1.7-6.28c-0.25-0.94-0.15-1.08,0.8-1.35c0.2-0.06,0.42-0.09,0.62-0.14c1.68-0.38,1.7-0.39,2.25,1.28
	c0.27,0.83,0.45,1.69,0.66,2.54c0.22,0.88,0.49,1.08,1.35,0.89c1.04-0.23,2.06-0.51,3.1-0.75c0.73-0.17,0.93-0.6,0.76-1.29
	c-0.31-1.24-0.56-2.49-0.9-3.72c-0.17-0.6,0.08-0.85,0.58-0.99c0.61-0.17,1.24-0.31,1.85-0.49c0.61-0.19,0.9,0.09,1.03,0.65
	c0.41,1.65,0.8,3.3,1.23,4.94c0.64,2.41,1.3,4.81,1.98,7.2C231.3,210.21,231.18,210.49,230.02,210.83z M252.6,203.77
	c-2.88,0.72-5.74,1.51-8.61,2.27c-0.57,0.15-0.86,0-1.02-0.63c-0.6-2.39-1.28-4.76-1.91-7.15c-0.47-1.79-0.91-3.59-1.38-5.39
	c-0.18-0.71,0.09-1.05,0.8-1.14c0.55-0.07,1.09-0.23,1.64-0.34c0.5-0.1,0.82,0.07,0.96,0.58c0.42,1.59,0.85,3.17,1.27,4.76
	c0.39,1.49,0.75,2.98,1.14,4.46c0.23,0.88,0.59,1.14,1.44,0.93c1.67-0.41,3.34-0.86,5-1.34c0.87-0.25,1.01-0.24,1.26,0.62
	c0.1,0.35,0.17,0.72,0.25,1.08C253.69,203.28,253.35,203.58,252.6,203.77z M270.13,199.59c-0.76,0.22-1.53,0.44-2.48,0.72
	c-0.13-0.09-0.43-0.2-0.59-0.42c-0.37-0.48-0.69-1.01-0.97-1.54c-0.39-0.73-0.87-1.15-1.77-0.89c-0.84,0.25-1.71,0.39-2.56,0.58
	c-0.47,0.1-0.66,0.38-0.63,0.86c0.05,0.72,0.04,1.44,0.1,2.15c0.06,0.65-0.25,0.99-0.86,1.12c-0.76,0.15-1.51,0.31-2.27,0.46
	c-0.53,0.11-0.73-0.11-0.69-0.65c0.32-4.34,0.63-8.68,0.92-13.02c0.12-1.72,0.18-1.82,1.86-2.23c0.51-0.13,1.02-0.3,1.53-0.43
	c0.6-0.15,1.12-0.01,1.46,0.52c1.56,2.4,3.12,4.79,4.66,7.21c0.92,1.46,1.79,2.96,2.69,4.42
	C270.9,199.03,270.79,199.4,270.13,199.59z M282.46,196.71c-3.83,1.58-7.68,0.36-8.94-3.93c-0.76-2.59-1.23-5.27-1.84-7.9
	c-0.15-0.63,0.01-0.93,0.69-1.01c0.52-0.06,1.02-0.27,1.52-0.45c0.75-0.28,1.13-0.13,1.29,0.63c0.41,1.89,0.77,3.79,1.21,5.67
	c0.3,1.28,0.49,2.62,1.45,3.64c0.64,0.68,1.94,0.99,2.72,0.68c0.75-0.3,1.63-1.65,1.58-2.51c-0.03-0.63-0.15-1.27-0.23-1.9
	c0.03-0.01,0.06-0.01,0.08-0.02c-0.56-2.23-1.11-4.47-1.67-6.7c-0.13-0.52,0.06-0.84,0.55-0.95c0.68-0.15,1.36-0.26,2.04-0.37
	c0.47-0.08,0.77,0.14,0.88,0.6c0.11,0.46,0.21,0.93,0.31,1.4c0.49,2.47,1.07,4.93,1.44,7.41
	C285.88,193.33,284.51,195.87,282.46,196.71z M300.71,192.7c-0.12,0.02-0.36-0.21-0.43-0.37c-0.45-0.96-0.88-1.92-1.28-2.9
	c-0.42-1.05-0.94-1.44-2.05-1.37c-0.63,0.04-1.26,0.2-1.89,0.27c-0.73,0.08-0.93,0.51-0.8,1.17c0.23,1.17,0.44,2.35,0.7,3.51
	c0.13,0.57,0.09,0.91-0.63,0.94c-0.52,0.02-1.06,0.13-1.56,0.31c-0.65,0.24-0.99,0-1.11-0.6c-0.27-1.38-0.49-2.77-0.75-4.16
	c-0.55-2.86-1.1-5.73-1.68-8.58c-0.1-0.47-0.11-0.81,0.42-0.91c2.66-0.48,5.32-0.99,7.99-1.42c3-0.48,5.55,3.21,4.21,5.83
	c-0.05,0.09-0.06,0.21-0.11,0.3c-0.25,0.42-0.73,0.84-0.71,1.25c0.01,0.37,0.62,0.68,0.87,1.07c0.37,0.6,0.7,1.23,0.97,1.88
	c0.39,0.97,0.7,1.97,1.08,3.05C302.85,192.23,301.78,192.49,300.71,192.7z M319.1,189.33c-2.67,0.44-5.34,0.87-8.01,1.31
	c-0.03,0-0.06,0-0.08,0c-1.72,0.2-1.74,0.21-2.05-1.49c-0.7-3.88-1.37-7.78-2.08-11.66c-0.13-0.73,0.03-1,0.82-1.02
	c0.74-0.02,1.47-0.23,2.2-0.36c0,0.03,0.01,0.06,0.01,0.09c2.11-0.39,4.23-0.77,6.34-1.18c0.56-0.11,0.79,0.02,0.91,0.62
	c0.4,1.99,0.64,2.33-1.82,2.61c-1.16,0.13-2.31,0.34-3.48,0.49c-0.53,0.06-0.72,0.27-0.66,0.83c0.26,2.24,0.25,2.27,2.48,2
	c0.89-0.11,1.77-0.36,2.66-0.47c0.21-0.03,0.46,0.23,0.69,0.35c0.01,0.01,0.01,0.05,0.01,0.08c0.46,1.94,0.46,1.93-1.53,2.24
	c-0.92,0.14-1.83,0.32-2.74,0.5c-0.56,0.11-0.79,0.41-0.71,1.02c0.27,2.08,0.26,2.11,2.34,1.86c1.34-0.17,2.68-0.4,4.01-0.66
	c0.57-0.11,0.79,0.1,0.88,0.6c0.08,0.47,0.11,0.96,0.27,1.41C319.78,189.03,319.58,189.25,319.1,189.33z M336.64,186.15
	c-0.97,0.11-1.94,0.25-2.9,0.45c-0.58,0.12-0.85-0.13-1.15-0.58c-1.64-2.5-3.32-4.98-4.98-7.46c-0.02-0.03-0.09-0.03-0.26-0.07
	c-0.03,0.25-0.11,0.5-0.08,0.73c0.28,2.16,0.56,4.32,0.88,6.47c0.27,1.8,0.3,1.8-1.45,2.03c-1.51,0.21-1.46,0.2-1.66-1.36
	c-0.34-2.58-0.75-5.15-1.14-7.72c-0.2-1.33-0.41-2.66-0.65-3.99c-0.08-0.48,0.11-0.74,0.54-0.8c1.55-0.22,3.1-0.44,4.66-0.58
	c0.25-0.02,0.63,0.26,0.8,0.51c1.29,1.88,2.55,3.79,3.82,5.68c0.15,0.23,0.35,0.43,0.71,0.58c-0.01-0.27,0.01-0.55-0.03-0.82
	c-0.27-1.97-0.53-3.95-0.83-5.92c-0.11-0.75,0.08-1.09,0.91-1.19c2.13-0.26,2.11-0.3,2.36,1.79c0.45,3.69,0.93,7.38,1.38,11.08
	C337.72,186.06,337.7,186.03,336.64,186.15z M296.67,181.55c-0.83,0.12-1.66,0.33-2.49,0.5c-1.04,0.21-1.25,0.5-1.07,1.53
	c0.04,0.21,0.09,0.41,0.13,0.6c0.14,2.27,0.83,1.95,2.39,1.53c0.1-0.03,0.21-0.05,0.31-0.08c0.76-0.24,1.55-0.38,2.25-0.73
	c0.69-0.35,0.85-1.34,0.54-2.21C298.46,181.95,297.57,181.42,296.67,181.55z M427.75,231.48v-25.75h10.66v-3.42h-24.74v3.42h10.66
	v25.75H427.75z M440.9,227.13c-1.4,0-2.49,1.13-2.49,2.49c0,1.4,1.09,2.49,2.49,2.49c1.36,0,2.49-1.09,2.49-2.49
	C443.39,228.25,442.26,227.13,440.9,227.13z M173.34,218.23c-0.17,0.11-0.31,0.41-0.32,0.63c-0.01,0.69,0.04,1.38,0.07,2.06
	c0.02,0,0.04,0,0.06,0c0.06,0.45,0.06,0.91,0.19,1.34c0.06,0.17,0.45,0.4,0.61,0.35c0.6-0.2,1.18-0.47,1.72-0.8
	c0.17-0.11,0.32-0.61,0.22-0.76c-0.6-0.9-1.27-1.76-1.95-2.61C173.83,218.28,173.46,218.16,173.34,218.23z M156.9,222.36
	c-1.03,0.32-2.04,0.73-3.02,1.17c-0.56,0.25-0.83,0.72-0.56,1.37c0.3,0.73,0.58,1.47,0.97,2.47c1.42-0.75,2.77-1.35,3.99-2.15
	c0.45-0.29,0.91-1.11,0.81-1.56C158.87,222.69,157.91,222.05,156.9,222.36z"/>
</svg>
